<?xml version="1.0" encoding="UTF-8"?>
<!DOCTYPE svg PUBLIC "-//W3C//DTD SVG 1.1//EN" "http://www.w3.org/Graphics/SVG/1.1/DTD/svg11.dtd">
<svg xmlns="http://www.w3.org/2000/svg" version="1.1" width="512px" height="512px" style="shape-rendering:geometricPrecision; text-rendering:geometricPrecision; image-rendering:optimizeQuality; fill-rule:evenodd; clip-rule:evenodd" xmlns:xlink="http://www.w3.org/1999/xlink">
<g><path style="opacity:1" fill="#2b2c41" d="M 249.5,79.5 C 259.36,77.3496 266.527,80.6829 271,89.5C 271.667,109.5 271.667,129.5 271,149.5C 264.867,160.06 256.367,162.56 245.5,157C 242.894,155.062 241.061,152.562 240,149.5C 239.333,129.5 239.333,109.5 240,89.5C 242.022,84.98 245.189,81.6467 249.5,79.5 Z"/></g>
<g><path style="opacity:1" fill="#2a2c41" d="M 73.5,119.5 C 79.1052,118.908 84.4386,119.741 89.5,122C 103.397,135.228 116.564,149.061 129,163.5C 130.367,182.794 121.867,189.294 103.5,183C 89.6032,169.772 76.4365,155.939 64,141.5C 61.4864,131.542 64.6531,124.208 73.5,119.5 Z"/></g>
<g><path style="opacity:1" fill="#2a2c41" d="M 425.5,119.5 C 444.778,118.61 451.278,127.276 445,145.5C 432.5,158 420,170.5 407.5,183C 389.133,189.294 380.633,182.794 382,163.5C 382.667,162.167 383.333,160.833 384,159.5C 397.425,145.572 411.258,132.239 425.5,119.5 Z"/></g>
<g><path style="opacity:1" fill="#2d2f44" d="M 235.5,175.5 C 274.9,173.122 312.9,179.289 349.5,194C 404.152,217.403 451.986,250.57 493,293.5C 496.333,300.167 496.333,306.833 493,313.5C 448.873,360.28 396.706,395.113 336.5,418C 273.696,439.138 212.029,436.138 151.5,409C 100.893,385.73 56.3933,353.897 18,313.5C 14.6667,306.833 14.6667,300.167 18,293.5C 64.5261,243.974 120.026,208.14 184.5,186C 201.363,181.128 218.363,177.628 235.5,175.5 Z"/></g>
<g><path style="opacity:1" fill="#d0eef1" d="M 237.5,207.5 C 287.6,205.858 334.267,217.692 377.5,243C 406.562,259.557 432.896,279.724 456.5,303.5C 414.729,346.07 365.062,375.903 307.5,393C 269.97,402.285 232.636,401.619 195.5,391C 141.376,372.957 94.3761,343.79 54.5,303.5C 92.9344,264.932 137.934,236.432 189.5,218C 205.348,213.151 221.348,209.651 237.5,207.5 Z"/></g>
<g><path style="opacity:1" fill="#2b2e43" d="M 245.5,239.5 C 284.636,237.826 309.136,255.826 319,293.5C 321.737,325.874 308.57,349.041 279.5,363C 246.981,373.715 220.814,365.215 201,337.5C 183.391,302.193 190.225,272.693 221.5,249C 229.191,244.721 237.191,241.554 245.5,239.5 Z"/></g>
<g><path style="opacity:1" fill="#eaeef2" d="M 250.5,271.5 C 269.102,270.623 281.269,278.957 287,296.5C 288.167,323.333 275.333,336.167 248.5,335C 230.146,328.817 221.979,315.983 224,296.5C 227.946,282.81 236.78,274.477 250.5,271.5 Z"/></g>
</svg>
