<?xml version="1.0" encoding="UTF-8"?>
<!DOCTYPE svg PUBLIC "-//W3C//DTD SVG 1.1//EN" "http://www.w3.org/Graphics/SVG/1.1/DTD/svg11.dtd">
<svg xmlns="http://www.w3.org/2000/svg" version="1.1" width="512px" height="512px" style="shape-rendering:geometricPrecision; text-rendering:geometricPrecision; image-rendering:optimizeQuality; fill-rule:evenodd; clip-rule:evenodd" xmlns:xlink="http://www.w3.org/1999/xlink">
<g><path style="opacity:0.974" fill="#000000" d="M 239.5,-0.5 C 250.167,-0.5 260.833,-0.5 271.5,-0.5C 322.277,7.80154 358.777,35.1349 381,81.5C 402.227,139.332 391.727,190.498 349.5,235C 345.833,238 342.167,241 338.5,244C 357.86,248.645 364.027,260.145 357,278.5C 352.796,283.869 347.296,286.869 340.5,287.5C 266.501,260.668 196.501,268.501 130.5,311C 84.0473,344.161 54.214,388.661 41,444.5C 38.6829,459.847 45.1829,468.68 60.5,471C 86.1667,471.333 111.833,471.667 137.5,472C 151.378,478.967 154.878,489.467 148,503.5C 145.06,507.037 141.56,509.703 137.5,511.5C 108.167,511.5 78.8333,511.5 49.5,511.5C 22.5,505.167 5.83333,488.5 -0.5,461.5C -0.5,454.5 -0.5,447.5 -0.5,440.5C 19.3588,354.952 68.6921,292.785 147.5,254C 155.754,250.471 164.087,247.138 172.5,244C 125.818,204.614 109.985,155.114 125,95.5C 144.185,40.8112 182.352,8.81117 239.5,-0.5 Z M 242.5,40.5 C 283.785,37.3934 315.618,53.0601 338,87.5C 352.325,114.59 354.325,142.59 344,171.5C 323.374,214.404 289.207,233.904 241.5,230C 206.677,223.172 181.843,203.672 167,171.5C 152.589,128.975 161.756,92.4751 194.5,62C 208.726,50.7172 224.726,43.5506 242.5,40.5 Z"/></g>
<g><path style="opacity:0.982" fill="#000000" d="M 511.5,395.5 C 511.5,406.5 511.5,417.5 511.5,428.5C 508.293,448.966 502.126,468.633 493,487.5C 484.19,500.142 472.357,508.142 457.5,511.5C 429.5,511.5 401.5,511.5 373.5,511.5C 354.163,506.726 340.663,495.059 333,476.5C 327.953,465.322 325.62,453.655 326,441.5C 330.507,429.826 339.007,425.326 351.5,428C 357.365,429.511 361.532,433.011 364,438.5C 366.473,447.753 369.64,456.753 373.5,465.5C 375.359,467.192 377.359,468.692 379.5,470C 401.791,471.612 424.124,471.946 446.5,471C 453.038,470.654 457.538,467.487 460,461.5C 473.977,428.486 473.977,395.486 460,362.5C 457.538,356.513 453.038,353.346 446.5,353C 424.124,352.054 401.791,352.388 379.5,354C 376.333,355.833 373.833,358.333 372,361.5C 369.179,369.786 366.512,378.119 364,386.5C 361.382,391.116 357.549,394.283 352.5,396C 304.5,396.333 256.5,396.667 208.5,397C 203.466,401.699 198.8,406.699 194.5,412C 199.5,417 204.5,422 209.5,427C 230.167,427.333 250.833,427.667 271.5,428C 283.174,432.507 287.674,441.007 285,453.5C 283.167,460.667 278.667,465.167 271.5,467C 244.771,467.973 218.104,467.64 191.5,466C 189.5,464.667 187.5,463.333 185.5,462C 173.696,449.196 161.53,436.696 149,424.5C 144.733,416.685 144.4,408.685 148,400.5C 160.804,386.695 173.971,373.195 187.5,360C 189.275,358.561 191.275,357.561 193.5,357C 239.17,356.833 284.837,356.333 330.5,355.5C 336.522,332.31 351.189,318.144 374.5,313C 402.167,312.333 429.833,312.333 457.5,313C 480.506,319.005 495.34,333.505 502,356.5C 506.3,369.365 509.467,382.365 511.5,395.5 Z"/></g>
<g><path style="opacity:0.95" fill="#000000" d="M 424.5,391.5 C 445.319,390.469 453.486,400.136 449,420.5C 442.547,430.986 433.38,434.153 421.5,430C 411.014,423.547 407.847,414.38 412,402.5C 414.708,397.079 418.875,393.413 424.5,391.5 Z"/></g>
</svg>
