<?xml version="1.0" encoding="UTF-8"?>
<!DOCTYPE svg PUBLIC "-//W3C//DTD SVG 1.1//EN" "http://www.w3.org/Graphics/SVG/1.1/DTD/svg11.dtd">
<svg xmlns="http://www.w3.org/2000/svg" version="1.1" width="512px" height="512px" style="shape-rendering:geometricPrecision; text-rendering:geometricPrecision; image-rendering:optimizeQuality; fill-rule:evenodd; clip-rule:evenodd" xmlns:xlink="http://www.w3.org/1999/xlink">
<g><path style="opacity:0.976" fill="#000000" d="M 165.5,-0.5 C 174.833,-0.5 184.167,-0.5 193.5,-0.5C 241.154,8.98726 269.654,37.6539 279,85.5C 282.781,119.239 272.948,148.239 249.5,172.5C 260.541,177.1 270.707,183.1 280,190.5C 286.67,203.308 284.17,213.808 272.5,222C 267.589,223.492 262.589,223.826 257.5,223C 207.998,193.461 157.998,192.461 107.5,220C 58.2404,253.156 35.5737,299.656 39.5,359.5C 85.8345,359.333 132.168,359.5 178.5,360C 189.804,365.442 193.97,374.275 191,386.5C 188.833,392.667 184.667,396.833 178.5,399C 123.167,399.667 67.8333,399.667 12.5,399C 6.31536,396.647 1.98203,392.48 -0.5,386.5C -0.5,364.5 -0.5,342.5 -0.5,320.5C 9.79429,251.542 46.461,202.209 109.5,172.5C 76.1221,135.551 70.2888,94.5507 92,49.5C 108.976,21.7627 133.476,5.09608 165.5,-0.5 Z M 178.5,39.5 C 207.942,41.6315 227.442,56.6315 237,84.5C 242.657,114.895 232.157,137.728 205.5,153C 177.523,164.465 153.356,158.965 133,136.5C 119.456,117.689 116.789,97.3557 125,75.5C 136.124,53.366 153.957,41.366 178.5,39.5 Z"/></g>
<g><path style="opacity:0.972" fill="#000000" d="M 511.5,354.5 C 511.5,365.833 511.5,377.167 511.5,388.5C 502.636,443.206 472.636,481.372 421.5,503C 410.644,506.93 399.644,509.764 388.5,511.5C 377.167,511.5 365.833,511.5 354.5,511.5C 292.964,500.806 253.131,465.472 235,405.5C 222.846,341.594 243.013,290.761 295.5,253C 337.372,228.462 381.038,224.796 426.5,242C 474.563,264.64 502.897,302.14 511.5,354.5 Z M 370.5,271.5 C 413.471,273.67 444.304,294.003 463,332.5C 480.006,380.994 468.506,421.16 428.5,453C 390.5,477.667 352.5,477.667 314.5,453C 276.252,422.915 264.085,384.415 278,337.5C 295.385,296.61 326.218,274.61 370.5,271.5 Z"/></g>
<g><path style="opacity:0.981" fill="#000000" d="M 364.5,311.5 C 376.82,309.077 385.653,313.41 391,324.5C 391.5,333.494 391.666,342.494 391.5,351.5C 400.506,351.334 409.506,351.5 418.5,352C 431.704,358.682 435.204,368.849 429,382.5C 426.404,386.39 422.904,389.223 418.5,391C 409.506,391.5 400.506,391.666 391.5,391.5C 391.666,400.506 391.5,409.506 391,418.5C 384.318,431.704 374.151,435.204 360.5,429C 356.61,426.404 353.777,422.904 352,418.5C 351.5,409.506 351.334,400.506 351.5,391.5C 342.494,391.666 333.494,391.5 324.5,391C 311.296,384.318 307.796,374.151 314,360.5C 316.596,356.61 320.096,353.777 324.5,352C 333.494,351.5 342.494,351.334 351.5,351.5C 351.334,342.494 351.5,333.494 352,324.5C 354.353,318.315 358.52,313.982 364.5,311.5 Z"/></g>
</svg>
