<?xml version="1.0" encoding="UTF-8"?>
<!DOCTYPE svg PUBLIC "-//W3C//DTD SVG 1.1//EN" "http://www.w3.org/Graphics/SVG/1.1/DTD/svg11.dtd">
<svg xmlns="http://www.w3.org/2000/svg" version="1.1" width="1920px" height="1080px" style="shape-rendering:geometricPrecision; text-rendering:geometricPrecision; image-rendering:optimizeQuality; fill-rule:evenodd; clip-rule:evenodd" xmlns:xlink="http://www.w3.org/1999/xlink">
<g><path style="opacity:0.998" fill="#e0bfe6" d="M 276.5,261.5 C 277.756,261.461 278.756,261.961 279.5,263C 389.166,263.5 498.833,263.667 608.5,263.5C 608.5,331.833 608.5,400.167 608.5,468.5C 545.833,468.5 483.167,468.5 420.5,468.5C 420.345,509.58 420.512,550.58 421,591.5C 350.352,653.314 279.852,715.314 209.5,777.5C 208.5,674.169 208.167,570.835 208.5,467.5C 154.499,467.667 100.499,467.5 46.5,467C 120.167,402 193.833,337 267.5,272C 271.107,268.902 274.107,265.402 276.5,261.5 Z"/></g>
<g><path style="opacity:0.989" fill="#d85a95" d="M 20.5,263.5 C 92.1698,263.167 163.836,263.5 235.5,264.5C 164.786,328.215 93.4526,391.215 21.5,453.5C 20.5,390.17 20.1667,326.837 20.5,263.5 Z"/></g>
<g><path style="opacity:0.978" fill="#dfbee5" d="M 1030.5,452.5 C 1081.17,452.333 1131.83,452.5 1182.5,453C 1187.72,453.842 1191.22,456.676 1193,461.5C 1194.63,487.117 1194.96,512.784 1194,538.5C 1192.52,546.498 1187.69,550.665 1179.5,551C 1140.5,551.333 1101.5,551.667 1062.5,552C 1053.79,552.767 1047.29,556.934 1043,564.5C 1041.85,588.286 1041.35,612.119 1041.5,636C 1041.35,659.881 1041.85,683.714 1043,707.5C 1046.04,714.113 1051.21,717.946 1058.5,719C 1076.16,719.5 1093.83,719.667 1111.5,719.5C 1111.33,690.831 1111.5,662.165 1112,633.5C 1114.28,627.263 1118.78,623.763 1125.5,623C 1154.5,622.333 1183.5,622.333 1212.5,623C 1221.8,623.97 1226.64,629.137 1227,638.5C 1227.67,692.5 1227.67,746.5 1227,800.5C 1226.64,809.863 1221.8,815.03 1212.5,816C 1153.17,816.667 1093.83,816.667 1034.5,816C 1008.44,815.403 984.104,808.736 961.5,796C 944.866,784.261 934.033,768.428 929,748.5C 926.544,737.975 925.211,727.308 925,716.5C 924.333,661.833 924.333,607.167 925,552.5C 924.197,504.201 946.697,473.035 992.5,459C 1005.14,455.84 1017.81,453.674 1030.5,452.5 Z M 1046.5,499.5 C 1080.17,499.5 1113.83,499.5 1147.5,499.5C 1147.5,500.5 1147.5,501.5 1147.5,502.5C 1110.14,502.066 1072.81,502.566 1035.5,504C 1020.86,504.876 1008.03,510.042 997,519.5C 989.208,530.545 985.208,542.879 985,556.5C 984.333,608.5 984.333,660.5 985,712.5C 985.398,724.432 988.731,735.432 995,745.5C 1001.98,753.144 1010.48,758.311 1020.5,761C 1028.73,762.985 1037.06,764.318 1045.5,765C 1086.17,765.5 1126.83,765.667 1167.5,765.5C 1167.5,733.5 1167.5,701.5 1167.5,669.5C 1168.5,669.5 1169.5,669.5 1170.5,669.5C 1170.5,702.833 1170.5,736.167 1170.5,769.5C 1137.17,769.667 1103.83,769.5 1070.5,769C 1053.3,769.351 1036.3,767.685 1019.5,764C 995.013,756.818 982.513,740.318 982,714.5C 981.333,661.5 981.333,608.5 982,555.5C 982.664,543.843 985.664,532.843 991,522.5C 997.863,512.98 1007.03,506.813 1018.5,504C 1027.88,501.877 1037.21,500.377 1046.5,499.5 Z"/></g>
<g><path style="opacity:0.967" fill="#dfbee6" d="M 1293.5,452.5 C 1376.17,452.333 1458.83,452.5 1541.5,453C 1548.48,454.768 1552.31,459.268 1553,466.5C 1553.67,488.833 1553.67,511.167 1553,533.5C 1552.64,542.863 1547.8,548.03 1538.5,549C 1491.17,549.5 1443.83,549.667 1396.5,549.5C 1396.5,561.833 1396.5,574.167 1396.5,586.5C 1431.83,586.333 1467.17,586.5 1502.5,587C 1507.87,589.032 1511.03,592.865 1512,598.5C 1512.67,620.5 1512.67,642.5 1512,664.5C 1511.87,669.915 1509.37,673.749 1504.5,676C 1468.56,677.481 1432.56,677.981 1396.5,677.5C 1396.5,691.5 1396.5,705.5 1396.5,719.5C 1444.83,719.333 1493.17,719.5 1541.5,720C 1546.68,720.831 1550.18,723.664 1552,728.5C 1553.61,752.464 1553.94,776.464 1553,800.5C 1552.95,807.443 1549.78,812.276 1543.5,815C 1461.2,816.653 1378.87,816.986 1296.5,816C 1288.55,815.384 1283.72,811.217 1282,803.5C 1281.33,690.833 1281.33,578.167 1282,465.5C 1282.9,458.442 1286.73,454.108 1293.5,452.5 Z M 1338.5,499.5 C 1394.17,499.5 1449.83,499.5 1505.5,499.5C 1505.5,500.5 1505.5,501.5 1505.5,502.5C 1450.83,502.5 1396.17,502.5 1341.5,502.5C 1341.5,545.167 1341.5,587.833 1341.5,630.5C 1382.83,630.5 1424.17,630.5 1465.5,630.5C 1465.5,631.5 1465.5,632.5 1465.5,633.5C 1424.17,633.5 1382.83,633.5 1341.5,633.5C 1341.5,677.5 1341.5,721.5 1341.5,765.5C 1396.17,765.5 1450.83,765.5 1505.5,765.5C 1505.5,766.833 1505.5,768.167 1505.5,769.5C 1449.83,769.5 1394.17,769.5 1338.5,769.5C 1338.5,679.5 1338.5,589.5 1338.5,499.5 Z"/></g>
<g><path style="opacity:0.982" fill="#d95b95" d="M 1596.5,452.5 C 1691.22,452.007 1785.89,452.507 1880.5,454C 1884.49,455.99 1886.99,459.157 1888,463.5C 1888.67,488.833 1888.67,514.167 1888,539.5C 1886.27,546.465 1881.77,550.298 1874.5,551C 1848.5,551.5 1822.5,551.667 1796.5,551.5C 1796.67,635.834 1796.5,720.167 1796,804.5C 1794.29,811.459 1789.79,815.293 1782.5,816C 1752.17,816.667 1721.83,816.667 1691.5,816C 1684.78,815.237 1680.28,811.737 1678,805.5C 1677.5,720.834 1677.33,636.167 1677.5,551.5C 1651.5,551.667 1625.5,551.5 1599.5,551C 1589.26,549.755 1584.43,543.922 1585,533.5C 1584.33,512.5 1584.33,491.5 1585,470.5C 1584.6,461.609 1588.43,455.609 1596.5,452.5 Z M 1632.5,499.5 C 1702.17,499.5 1771.83,499.5 1841.5,499.5C 1841.5,500.5 1841.5,501.5 1841.5,502.5C 1807.17,502.5 1772.83,502.5 1738.5,502.5C 1738.5,591.5 1738.5,680.5 1738.5,769.5C 1737.5,769.5 1736.5,769.5 1735.5,769.5C 1735.5,680.5 1735.5,591.5 1735.5,502.5C 1701.17,502.5 1666.83,502.5 1632.5,502.5C 1632.5,501.5 1632.5,500.5 1632.5,499.5 Z"/></g>
<g><path style="opacity:0.982" fill="#e0bfe6" d="M 614.5,581.5 C 663.501,581.333 712.501,581.5 761.5,582C 769.114,583.281 773.28,587.781 774,595.5C 774.667,621.5 774.667,647.5 774,673.5C 771.967,683.45 765.801,687.95 755.5,687C 709.833,687.667 664.167,687.667 618.5,687C 609.525,687.276 604.025,683.109 602,674.5C 601.333,647.833 601.333,621.167 602,594.5C 603.347,587.321 607.514,582.988 614.5,581.5 Z M 648.5,632.5 C 674.833,632.5 701.167,632.5 727.5,632.5C 727.5,633.5 727.5,634.5 727.5,635.5C 701.167,635.5 674.833,635.5 648.5,635.5C 648.5,634.5 648.5,633.5 648.5,632.5 Z"/></g>
<g><path style="opacity:0.997" fill="#d95a95" d="M 418.5,627.5 C 420.496,690.158 421.163,753.158 420.5,816.5C 350.166,816.667 279.833,816.5 209.5,816C 279.24,753.15 348.906,690.316 418.5,627.5 Z"/></g>
</svg>
